<svg version="1.1" id="Layer_1" xmlns="http://www.w3.org/2000/svg" xmlns:xlink="http://www.w3.org/1999/xlink" x="0px" y="0px"
	 width="100%" viewBox="0 0 2250 2250" enable-background="new 0 0 2250 2250" xml:space="preserve">
<path fill="#FFFFFF" opacity="1.000000" stroke="none" 
	d="
M1270.000000,2252.000000 
	C846.713440,2252.000000 424.426941,2252.000000 2.070195,2252.000000 
	C2.070195,1502.129883 2.070195,752.259827 2.070195,2.194851 
	C751.786987,2.194851 1501.573975,2.194851 2251.680664,2.194851 
	C2251.680664,751.999878 2251.680664,1501.999878 2251.680664,2252.000000 
	C1924.925659,2252.000000 1597.962769,2252.000000 1270.000000,2252.000000 
M1587.933350,1438.890625 
	C1599.484375,1419.444336 1612.088013,1400.537231 1622.382568,1380.447144 
	C1649.559814,1327.408936 1667.799561,1271.411987 1676.667480,1212.267578 
	C1680.966187,1183.598511 1682.865356,1154.833496 1683.511353,1126.009644 
	C1683.911133,1108.172974 1681.997314,1090.204590 1680.030884,1072.415894 
	C1677.772583,1051.986816 1675.500244,1031.432739 1671.155273,1011.383484 
	C1655.254028,938.011047 1625.944092,870.412964 1582.699341,808.795471 
	C1553.991699,767.891296 1520.317505,731.659241 1482.104126,699.782898 
	C1441.770996,666.138306 1397.120605,639.250916 1348.884033,618.171082 
	C1279.331909,587.776123 1206.377441,573.881042 1130.904663,572.420166 
	C1111.730103,572.049011 1092.399048,573.747559 1073.319580,576.009399 
	C1049.628784,578.817993 1025.795654,581.783813 1002.601501,587.169434 
	C933.853577,603.132568 870.226379,630.997925 812.250671,671.677734 
	C770.857239,700.722229 733.762756,734.237854 701.512634,773.179199 
	C648.664429,836.992188 612.038818,909.017212 591.132507,989.184021 
	C581.962952,1024.345459 576.616577,1060.122925 574.474731,1096.236938 
	C572.585754,1128.088135 572.854248,1160.109131 577.834778,1191.801147 
	C581.335022,1214.073730 584.389465,1236.493286 589.458130,1258.427612 
	C601.826355,1311.950928 622.651306,1362.191406 650.602722,1409.528564 
	C683.267517,1464.848267 724.408142,1513.001953 773.624023,1554.066772 
	C816.285889,1589.663086 863.403564,1618.135376 914.796509,1639.678711 
	C973.341675,1664.220215 1034.369019,1677.736572 1097.462158,1681.484985 
	C1121.608887,1682.919434 1146.029907,1681.625000 1170.215088,1679.962891 
	C1192.012207,1678.464844 1213.823730,1675.690796 1235.335449,1671.840210 
	C1278.072998,1664.190063 1319.040405,1650.444824 1358.555786,1632.531616 
	C1401.216675,1613.192505 1440.721558,1588.637329 1477.183716,1559.235596 
	C1497.943359,1542.495850 1517.585815,1524.469971 1535.624268,1504.858521 
	C1554.320801,1484.531738 1571.423462,1462.839844 1587.933350,1438.890625 
M623.340698,415.574768 
	C620.104736,412.812836 616.868774,410.050873 613.191345,406.912140 
	C533.184387,464.274384 465.026215,532.591858 407.814240,612.311279 
	C420.903870,627.541992 434.144714,641.986633 446.290741,657.299622 
	C466.121765,682.301392 485.128082,707.955688 504.750092,733.125977 
	C508.721405,738.220276 508.374481,742.255615 505.221771,747.479858 
	C497.663269,760.005066 490.369934,772.705383 483.407379,785.571899 
	C468.818085,812.532410 456.521088,840.557617 445.573151,869.174500 
	C442.896729,876.170471 440.601471,883.312317 438.240112,890.074463 
	C439.493530,890.918152 439.800385,891.296021 440.026520,891.252686 
	C484.788513,882.675964 528.544922,870.323792 571.877014,856.326965 
	C575.859619,855.040466 577.841858,852.618225 579.570801,849.241760 
	C583.056580,842.434265 586.713501,835.713013 590.375061,828.997253 
	C617.313171,779.589844 651.395752,735.459290 690.401123,695.121094 
	C702.621582,682.483032 716.107117,671.032593 729.366089,659.441833 
	C758.003845,634.407227 788.952515,612.579102 822.080627,593.866516 
	C831.222473,588.702698 840.410828,583.621155 851.123291,577.638855 
	C769.087280,531.179382 693.578796,478.263306 623.340698,415.574768 
M1469.433472,1715.635132 
	C1484.121704,1725.377441 1498.950562,1734.915283 1513.470215,1744.902710 
	C1548.564209,1769.041992 1582.265137,1794.998413 1614.350952,1823.036743 
	C1624.026001,1831.491211 1633.870850,1839.751343 1643.466797,1847.954224 
	C1712.984375,1800.871216 1827.606689,1685.529175 1848.408447,1641.601196 
	C1812.596436,1601.435791 1778.410767,1559.584839 1747.613525,1514.923706 
	C1776.623535,1467.273804 1801.068359,1418.090332 1818.698486,1364.659424 
	C1815.207397,1364.659424 1812.911621,1364.266846 1810.795532,1364.717407 
	C1769.513672,1373.508057 1728.806396,1384.420776 1688.659302,1397.485352 
	C1682.451538,1399.505249 1678.617188,1402.646729 1675.701294,1408.545288 
	C1647.434204,1465.727295 1609.291016,1515.871216 1565.035645,1561.462524 
	C1553.487915,1573.358887 1540.630371,1583.998535 1528.208374,1595.028687 
	C1504.013306,1616.512451 1477.800049,1635.277588 1450.136108,1652.002441 
	C1435.971924,1660.565796 1421.547974,1668.699341 1406.740601,1677.318604 
	C1427.495605,1689.969849 1447.867432,1702.387329 1469.433472,1715.635132 
M525.092651,1492.121338 
	C489.892578,1545.048950 450.738770,1594.905640 408.138245,1641.762085 
	C434.945831,1692.099365 565.900391,1822.951416 614.159912,1847.721680 
	C621.292053,1841.526367 628.596802,1835.312134 635.758728,1828.937378 
	C666.841064,1801.272095 699.853027,1776.062378 733.516846,1751.658691 
	C738.730835,1747.878784 742.702820,1747.291138 748.666443,1750.946045 
	C782.461121,1771.656982 817.726746,1789.567017 854.585083,1804.229492 
	C866.538635,1808.984497 878.634705,1813.381104 890.889526,1818.026611 
	C891.451111,1816.047607 891.942993,1815.114746 891.928772,1814.189575 
	C891.903259,1812.537964 891.713562,1810.859009 891.348267,1809.246826 
	C881.947937,1767.765259 871.508484,1726.567871 857.963379,1686.205566 
	C856.287781,1681.212646 853.720093,1677.869507 848.795532,1675.379395 
	C779.107849,1640.141602 718.648987,1592.989258 667.027405,1534.380371 
	C639.224976,1502.814697 614.657715,1469.003052 594.035095,1432.336304 
	C589.180603,1423.705200 584.352478,1415.059326 579.220703,1405.899780 
	C561.152161,1434.722534 543.533386,1462.827881 525.092651,1492.121338 
M1731.946533,479.040649 
	C1703.960449,453.104279 1674.886719,428.533752 1643.798096,407.164429 
	C1622.150391,425.338837 1601.879028,443.037903 1580.866211,459.807709 
	C1559.860107,476.571899 1538.112305,492.406433 1516.802979,508.562439 
	C1512.816284,506.419647 1509.827515,505.005127 1507.029785,503.280701 
	C1464.376343,476.989929 1419.138550,456.141846 1372.049683,439.209930 
	C1369.863403,438.423798 1367.343018,438.566864 1364.257324,438.188873 
	C1373.585327,483.210419 1385.107300,526.150024 1398.951538,568.494995 
	C1400.804443,574.162598 1404.253540,577.065247 1409.108032,579.835999 
	C1429.609619,591.537781 1450.500122,602.710327 1470.125244,615.764832 
	C1514.063232,644.991882 1553.614380,679.380798 1588.580200,719.102600 
	C1619.051880,753.719360 1645.834106,790.793213 1667.836670,831.325256 
	C1670.936279,837.035400 1674.365967,842.566467 1678.547607,849.730469 
	C1727.256226,763.808105 1783.164551,685.165100 1849.218140,612.841248 
	C1815.332153,563.905151 1775.616821,520.688171 1731.946533,479.040649 
M454.099152,1406.932861 
	C459.950897,1420.819092 465.394897,1434.905518 473.807251,1448.953979 
	C475.037933,1447.149658 475.597137,1446.355591 476.130127,1445.544312 
	C500.635010,1408.247559 522.798096,1369.604614 542.994812,1329.812378 
	C545.236572,1325.395386 544.363220,1321.700806 543.016785,1317.481812 
	C521.962463,1251.506836 511.122467,1184.036377 513.698059,1114.645508 
	C514.215332,1100.709961 514.737610,1086.765747 515.720093,1072.858032 
	C518.325806,1035.971558 525.234192,999.825745 535.088623,964.219788 
	C537.625122,955.054871 540.244202,945.912781 543.313660,935.028687 
	C495.213135,947.980530 448.128448,958.770508 400.373474,966.605530 
	C352.260681,974.499207 303.853302,979.279907 254.674820,982.178650 
	C238.920502,1079.566650 238.833664,1176.398438 254.650833,1272.315552 
	C282.821045,1274.856934 309.612549,1276.824707 336.290619,1279.807007 
	C363.226685,1282.817871 390.050293,1286.834961 416.692505,1290.380615 
	C426.435455,1330.569092 437.902527,1368.710693 454.099152,1406.932861 
M1330.866089,1713.265137 
	C1327.252686,1710.549316 1323.476562,1711.248657 1319.545044,1712.517456 
	C1312.591675,1714.761108 1305.582886,1716.834106 1298.588135,1718.948242 
	C1258.061035,1731.197266 1216.495850,1738.050171 1174.419434,1741.426514 
	C1155.321899,1742.958984 1136.029297,1742.407959 1116.830811,1742.217041 
	C1102.564209,1742.075317 1088.292847,1741.209229 1074.048462,1740.282959 
	C1042.160156,1738.209351 1010.833252,1732.533325 979.890442,1724.731934 
	C965.535339,1721.112549 951.312988,1716.966675 935.848694,1712.736206 
	C962.493896,1807.736084 978.581055,1903.571045 982.882568,2001.004028 
	C1067.343384,2016.698486 1223.206787,2016.259155 1273.892578,2000.287720 
	C1277.022949,1946.166260 1282.291626,1892.207031 1292.348633,1839.049927 
	C1347.140991,1825.856689 1399.312744,1808.302979 1450.463867,1782.395630 
	C1411.152222,1756.618408 1372.483154,1734.004150 1330.866089,1713.265137 
M1716.746094,919.930481 
	C1714.093994,925.524719 1711.385986,930.421509 1713.751953,937.603271 
	C1732.790405,995.395874 1743.017334,1054.753662 1743.654907,1115.673218 
	C1743.769775,1126.642578 1744.162720,1137.641113 1743.560181,1148.578491 
	C1742.520386,1167.455444 1741.567139,1186.391846 1739.202393,1205.129639 
	C1734.579712,1241.758911 1726.597778,1277.734985 1715.590942,1313.011719 
	C1714.972900,1314.992065 1714.851196,1317.127319 1714.375366,1319.910645 
	C1809.124512,1293.492310 1904.436890,1277.451294 2002.246460,1273.113403 
	C2018.113525,1175.786011 2018.238403,1078.916870 2002.221069,982.156555 
	C1946.795410,979.004578 1893.130371,973.600891 1840.074707,963.703796 
	C1826.956299,908.874023 1809.091919,856.539917 1783.475708,805.507568 
	C1758.858032,842.835388 1737.007202,880.038330 1716.746094,919.930481 
M958.431885,417.650543 
	C906.222229,429.995972 856.041138,447.879242 807.922241,471.785126 
	C808.656921,473.156586 808.805298,473.905273 809.253357,474.202911 
	C847.255981,499.448914 886.694641,522.221863 927.634033,542.349670 
	C930.155762,543.589417 934.007935,543.115601 936.952698,542.341675 
	C956.217957,537.278625 975.258484,531.289673 994.644897,526.772583 
	C1038.779297,516.489136 1083.672363,511.769714 1128.933838,511.902496 
	C1150.459229,511.965637 1172.007080,513.985168 1193.492920,515.750916 
	C1229.344604,518.697144 1264.381714,526.130859 1298.904541,536.106079 
	C1305.739014,538.080811 1312.602539,539.954346 1321.099365,542.336182 
	C1294.473633,447.261505 1278.736206,351.971375 1274.010010,255.064484 
	C1230.037476,237.966431 1020.666748,238.306076 983.551025,255.054306 
	C980.897095,284.896210 978.773132,314.344666 975.511108,343.666504 
	C972.983215,366.389404 968.909607,388.937256 965.830444,411.604706 
	C965.289795,415.585236 962.897583,416.321075 958.431885,417.650543 
z"/>
<path fill="#7CCEDC" opacity="1.000000" stroke="none" 
	d="
M1587.500122,1439.465088 
	C1571.423462,1462.839844 1554.320801,1484.531738 1535.624268,1504.858521 
	C1517.585815,1524.469971 1497.943359,1542.495850 1477.183716,1559.235596 
	C1440.721558,1588.637329 1401.216675,1613.192505 1358.555786,1632.531616 
	C1319.040405,1650.444824 1278.072998,1664.190063 1235.335449,1671.840210 
	C1213.823730,1675.690796 1192.012207,1678.464844 1170.215088,1679.962891 
	C1146.029907,1681.625000 1121.608887,1682.919434 1097.462158,1681.484985 
	C1034.369019,1677.736572 973.341675,1664.220215 914.796509,1639.678711 
	C863.403564,1618.135376 816.285889,1589.663086 773.624023,1554.066772 
	C724.408142,1513.001953 683.267517,1464.848267 650.602722,1409.528564 
	C622.651306,1362.191406 601.826355,1311.950928 589.458130,1258.427612 
	C584.389465,1236.493286 581.335022,1214.073730 577.834778,1191.801147 
	C572.854248,1160.109131 572.585754,1128.088135 574.474731,1096.236938 
	C576.616577,1060.122925 581.962952,1024.345459 591.132507,989.184021 
	C612.038818,909.017212 648.664429,836.992188 701.512634,773.179199 
	C733.762756,734.237854 770.857239,700.722229 812.250671,671.677734 
	C870.226379,630.997925 933.853577,603.132568 1002.601501,587.169434 
	C1025.795654,581.783813 1049.628784,578.817993 1073.319580,576.009399 
	C1092.399048,573.747559 1111.730103,572.049011 1130.904663,572.420166 
	C1206.377441,573.881042 1279.331909,587.776123 1348.884033,618.171082 
	C1397.120605,639.250916 1441.770996,666.138306 1482.104126,699.782898 
	C1520.317505,731.659241 1553.991699,767.891296 1582.699341,808.795471 
	C1625.944092,870.412964 1655.254028,938.011047 1671.155273,1011.383484 
	C1675.500244,1031.432739 1677.772583,1051.986816 1680.030884,1072.415894 
	C1681.997314,1090.204590 1683.911133,1108.172974 1683.511353,1126.009644 
	C1682.865356,1154.833496 1680.966187,1183.598511 1676.667480,1212.267578 
	C1667.799561,1271.411987 1649.559814,1327.408936 1622.382568,1380.447144 
	C1612.088013,1400.537231 1599.484375,1419.444336 1587.500122,1439.465088 
M1248.783447,658.086243 
	C1224.603638,652.342590 1200.341064,647.136169 1174.883057,645.672241 
	C1174.883057,660.206482 1174.883057,673.623169 1174.883057,687.886780 
	C1186.559570,687.886780 1197.503418,687.787842 1208.444336,687.918823 
	C1216.851685,688.019409 1218.857056,690.069031 1219.367554,698.538635 
	C1219.507690,700.863892 1219.404785,703.203979 1219.404785,705.537292 
	C1219.405884,737.870605 1219.405640,770.203857 1219.405640,802.537170 
	C1219.405640,806.098694 1219.405640,809.660217 1219.405640,812.547546 
	C1239.879639,822.905334 1247.198608,835.422058 1243.777466,852.643738 
	C1241.104980,866.096802 1227.993408,877.244629 1213.937378,878.014404 
	C1198.868408,878.839661 1184.786011,869.640991 1180.605591,855.984985 
	C1178.416260,848.832764 1178.284058,841.595886 1180.792236,834.399353 
	C1184.711792,823.153137 1193.618042,817.077087 1203.577393,812.876831 
	C1203.577393,775.890686 1203.577393,739.673523 1203.577393,702.939636 
	C1201.181152,702.677551 1199.269043,702.301270 1197.354248,702.287415 
	C1188.021484,702.219910 1178.685059,702.388306 1169.355469,702.201599 
	C1161.478882,702.043884 1159.978149,700.568726 1159.801880,692.811035 
	C1159.605225,684.148865 1159.750610,675.478760 1159.748901,666.812134 
	C1159.747437,659.568054 1159.748535,652.323914 1159.748535,644.508606 
	C1093.011475,640.027405 1029.227661,648.586060 967.289124,670.523071 
	C918.035156,687.967529 872.677795,712.534485 831.064941,745.377197 
	C838.308716,756.482361 844.964172,766.685608 852.039368,777.532288 
	C860.120728,772.450500 867.247681,767.968872 874.440125,763.446045 
	C877.974854,768.237061 880.703552,771.935486 883.583740,775.839294 
	C886.843140,774.391785 889.771729,773.091187 892.819580,771.737610 
	C893.903137,773.112549 894.879639,774.054077 895.505859,775.188904 
	C924.157715,827.109253 952.856384,879.004395 981.265198,931.057556 
	C983.688965,935.498596 986.552490,938.201172 991.071777,940.153564 
	C1009.110413,947.946777 1027.026733,956.024475 1044.947876,964.086487 
	C1046.936035,964.980896 1048.666626,966.448059 1051.028198,967.981689 
	C1047.760864,975.711670 1044.701660,982.949524 1041.338989,990.905334 
	C1057.224854,997.913757 1072.308228,1004.568176 1088.233398,1011.593994 
	C1092.139893,1003.161682 1095.547241,995.806885 1099.102661,988.132446 
	C1119.621094,997.259705 1139.491455,1005.093323 1158.430664,1014.752808 
	C1188.946167,1030.316528 1193.298096,1071.155518 1167.437744,1093.739746 
	C1163.468750,1097.205933 1158.744629,1099.807495 1153.618408,1103.324463 
	C1153.618408,1119.446777 1153.669922,1136.089722 1153.571899,1152.732056 
	C1153.553711,1155.820557 1155.509888,1157.047729 1157.341187,1159.036743 
	C1161.097900,1163.117310 1165.122925,1167.643921 1166.887085,1172.732544 
	C1171.676147,1186.545166 1169.502319,1200.839111 1169.001953,1215.316772 
	C1145.636841,1215.316772 1123.491821,1215.316772 1100.247803,1215.316772 
	C1100.247803,1206.084473 1100.362061,1197.501953 1100.221680,1188.923706 
	C1100.001221,1175.453369 1104.204956,1164.123901 1115.688965,1156.224365 
	C1115.688965,1137.805786 1115.688965,1119.541626 1115.688965,1100.908813 
	C1097.378296,1092.659302 1079.280029,1084.505493 1060.395142,1075.997314 
	C1063.791138,1067.513794 1066.798828,1060.000122 1070.008545,1051.981689 
	C1054.073242,1044.920288 1038.977173,1038.230835 1023.439148,1031.345581 
	C1019.506775,1039.594238 1016.004211,1046.941406 1012.284363,1054.744263 
	C985.995300,1043.058228 960.625977,1032.161621 935.628052,1020.470703 
	C926.382263,1016.146729 917.657959,1012.007202 907.201721,1015.216858 
	C905.723511,1015.670654 903.917114,1015.015503 902.259705,1014.930786 
	C887.826294,1014.193420 877.677246,1006.603882 868.885437,995.614380 
	C839.746216,959.191223 810.172913,923.115356 780.800293,886.878601 
	C774.121094,878.638428 767.579041,870.287048 760.902527,861.897278 
	C763.132385,859.030273 764.854248,856.816467 766.536377,854.653748 
	C763.772278,849.866882 761.331543,845.639954 758.542725,840.810242 
	C768.681458,833.820679 778.172302,827.277771 788.220764,820.350464 
	C784.223206,814.231201 780.636597,808.679688 776.973816,803.178955 
	C776.089050,801.850220 774.952087,800.689331 773.126160,798.475220 
	C722.226318,853.362854 686.046936,915.915100 664.912109,986.799866 
	C631.951721,1097.346680 637.367310,1206.453247 681.009521,1313.267456 
	C706.332886,1375.246094 743.744324,1429.171265 793.360229,1477.293701 
	C793.360229,1411.680542 793.360229,1348.522217 793.360229,1285.480225 
	C773.220459,1275.156616 765.087891,1261.999390 768.648682,1245.754028 
	C771.798645,1231.383057 783.830261,1220.800781 798.018372,1219.922241 
	C814.176819,1218.921875 826.890259,1227.346069 831.994629,1242.219238 
	C834.485291,1249.476440 834.324951,1256.587524 831.748779,1263.740234 
	C827.722961,1274.917969 818.646118,1280.814941 808.972107,1285.055908 
	C808.626038,1286.158081 808.439941,1286.474243 808.439636,1286.790771 
	C808.369019,1353.121704 808.342529,1419.452637 808.179504,1485.783325 
	C808.169373,1489.920654 809.806091,1492.602417 812.804077,1495.112183 
	C833.788513,1512.679688 855.685425,1528.968262 879.283203,1542.888672 
	C881.149475,1543.989624 883.257751,1544.680054 885.894104,1545.843994 
	C885.894104,1510.313599 885.894104,1475.724976 885.894104,1441.330688 
	C864.502319,1429.078247 857.672729,1416.576050 862.523254,1398.974854 
	C866.454590,1384.709229 879.220825,1375.535522 894.815247,1375.770508 
	C909.384521,1375.989868 922.227417,1385.975342 925.617554,1399.719360 
	C929.941772,1417.250854 922.866882,1429.837158 901.596069,1441.384766 
	C901.596069,1444.200806 901.596130,1447.488892 901.596130,1450.776978 
	C901.596069,1482.110229 901.882080,1513.447998 901.400635,1544.773804 
	C901.275696,1552.900146 903.757263,1557.127563 911.168762,1560.761963 
	C990.983276,1599.900513 1074.962891,1617.059692 1163.791626,1610.484253 
	C1188.092285,1608.685303 1212.112915,1605.483521 1235.788574,1599.970215 
	C1341.511108,1575.350708 1429.703613,1521.612305 1499.657227,1438.723633 
	C1557.717407,1369.927368 1593.103516,1290.441162 1607.459839,1201.598145 
	C1607.908203,1198.822998 1607.516602,1195.912109 1607.516602,1192.791626 
	C1571.196899,1192.791626 1535.674927,1192.791626 1500.435913,1192.791626 
	C1489.747070,1213.387451 1476.739868,1221.177368 1460.335693,1217.179932 
	C1445.286621,1213.512573 1434.771606,1200.680176 1434.436157,1185.572876 
	C1434.111084,1170.924561 1444.677612,1157.368286 1459.547119,1153.357910 
	C1475.865479,1148.956543 1488.820679,1156.465576 1500.606567,1177.411133 
	C1536.605469,1177.411133 1572.816406,1177.411133 1608.880615,1177.411133 
	C1615.203003,1157.053101 1613.033813,1071.035278 1605.937378,1052.577393 
	C1558.697388,1052.577393 1511.510986,1052.577393 1463.386719,1052.577393 
	C1463.386719,1059.215210 1463.587646,1065.165161 1463.338013,1071.096191 
	C1462.995483,1079.232666 1460.524658,1081.577148 1452.248413,1081.823242 
	C1446.253540,1082.001465 1440.249390,1081.864868 1434.249390,1081.865601 
	C1424.341675,1081.866943 1414.433960,1081.865967 1405.091553,1081.865967 
	C1394.279175,1103.886353 1376.369141,1107.865967 1362.983765,1103.825073 
	C1348.976440,1099.596313 1339.486206,1086.318359 1339.942749,1071.217163 
	C1340.393066,1056.326050 1350.729126,1043.646973 1365.359741,1040.490601 
	C1372.326416,1038.987671 1379.291748,1039.473877 1385.942993,1042.346191 
	C1396.494019,1046.902832 1401.968018,1055.810547 1405.676025,1066.605713 
	C1413.006958,1066.605713 1419.973145,1066.638306 1426.938721,1066.596436 
	C1433.767944,1066.555420 1440.596802,1066.438843 1448.136475,1066.346802 
	C1448.136475,1058.917603 1448.006836,1052.956055 1448.168823,1047.002319 
	C1448.376343,1039.375122 1450.694336,1037.034058 1458.323608,1036.466187 
	C1460.644531,1036.293579 1462.988281,1036.417114 1465.321533,1036.416992 
	C1507.654785,1036.415527 1549.988159,1036.416016 1592.321411,1036.415894 
	C1595.902466,1036.415894 1599.483521,1036.415894 1604.283691,1036.415894 
	C1592.290283,973.868591 1569.332886,917.279114 1535.605957,864.995911 
	C1507.311157,821.133545 1472.950562,782.779785 1430.713989,749.140869 
	C1430.482910,752.965698 1430.270752,754.860962 1430.268799,756.756470 
	C1430.243896,780.423096 1430.304077,804.089966 1430.220337,827.756287 
	C1430.187988,836.927368 1428.233154,838.926819 1419.257690,839.344238 
	C1415.018799,839.541321 1410.763306,839.378052 1407.074097,839.378052 
	C1396.921631,861.263000 1384.335815,870.159119 1368.427856,867.489197 
	C1353.446411,864.974854 1341.780396,852.614929 1340.324707,837.714233 
	C1338.922729,823.366211 1348.087524,809.129395 1361.968506,804.091858 
	C1378.574951,798.065186 1391.781982,803.998718 1405.156860,823.653076 
	C1408.239502,823.653076 1411.475464,823.653076 1415.860962,823.653076 
	C1415.860962,819.954712 1415.860962,816.706665 1415.860962,813.458618 
	C1415.860962,791.458618 1415.497437,769.449402 1416.057495,747.463684 
	C1416.254272,739.738770 1413.280151,735.444092 1407.271484,731.233154 
	C1359.290161,697.606689 1306.962280,673.476379 1248.783447,658.086243 
M897.313965,990.208252 
	C903.432190,991.496582 909.533813,993.794983 915.671570,993.895996 
	C940.368530,994.302612 958.263367,973.994873 956.185364,948.651123 
	C954.351257,926.281921 932.068176,908.931946 909.589600,912.370850 
	C886.001282,915.979492 870.319641,939.229675 875.572021,962.368713 
	C878.344910,974.584412 885.855957,982.963928 897.313965,990.208252 
M1160.513916,1046.903931 
	C1159.075684,1044.677368 1157.933472,1042.173218 1156.150024,1040.270142 
	C1146.307129,1029.766479 1129.530396,1029.806763 1119.618652,1040.202271 
	C1109.366699,1050.954590 1110.591431,1067.774536 1122.317749,1077.271362 
	C1133.317139,1086.179443 1150.291504,1083.745728 1158.480469,1071.935669 
	C1163.565552,1064.602295 1164.682495,1056.668091 1160.513916,1046.903931 
z"/>
<path fill="#7DCFDD" opacity="1.000000" stroke="none" 
	d="
M623.962769,415.931274 
	C693.578796,478.263306 769.087280,531.179382 851.123291,577.638855 
	C840.410828,583.621155 831.222473,588.702698 822.080627,593.866516 
	C788.952515,612.579102 758.003845,634.407227 729.366089,659.441833 
	C716.107117,671.032593 702.621582,682.483032 690.401123,695.121094 
	C651.395752,735.459290 617.313171,779.589844 590.375061,828.997253 
	C586.713501,835.713013 583.056580,842.434265 579.570801,849.241760 
	C577.841858,852.618225 575.859619,855.040466 571.877014,856.326965 
	C528.544922,870.323792 484.788513,882.675964 440.026520,891.252686 
	C439.800385,891.296021 439.493530,890.918152 438.240112,890.074463 
	C440.601471,883.312317 442.896729,876.170471 445.573151,869.174500 
	C456.521088,840.557617 468.818085,812.532410 483.407379,785.571899 
	C490.369934,772.705383 497.663269,760.005066 505.221771,747.479858 
	C508.374481,742.255615 508.721405,738.220276 504.750092,733.125977 
	C485.128082,707.955688 466.121765,682.301392 446.290741,657.299622 
	C434.144714,641.986633 420.903870,627.541992 407.814240,612.311279 
	C465.026215,532.591858 533.184387,464.274384 613.191345,406.912140 
	C616.868774,410.050873 620.104736,412.812836 623.962769,415.931274 
z"/>
<path fill="#7DCFDD" opacity="1.000000" stroke="none" 
	d="
M1468.836304,1715.219971 
	C1447.867432,1702.387329 1427.495605,1689.969849 1406.740601,1677.318604 
	C1421.547974,1668.699341 1435.971924,1660.565796 1450.136108,1652.002441 
	C1477.800049,1635.277588 1504.013306,1616.512451 1528.208374,1595.028687 
	C1540.630371,1583.998535 1553.487915,1573.358887 1565.035645,1561.462524 
	C1609.291016,1515.871216 1647.434204,1465.727295 1675.701294,1408.545288 
	C1678.617188,1402.646729 1682.451538,1399.505249 1688.659302,1397.485352 
	C1728.806396,1384.420776 1769.513672,1373.508057 1810.795532,1364.717407 
	C1812.911621,1364.266846 1815.207397,1364.659424 1818.698486,1364.659424 
	C1801.068359,1418.090332 1776.623535,1467.273804 1747.613525,1514.923706 
	C1778.410767,1559.584839 1812.596436,1601.435791 1848.408447,1641.601196 
	C1827.606689,1685.529175 1712.984375,1800.871216 1643.466797,1847.954224 
	C1633.870850,1839.751343 1624.026001,1831.491211 1614.350952,1823.036743 
	C1582.265137,1794.998413 1548.564209,1769.041992 1513.470215,1744.902710 
	C1498.950562,1734.915283 1484.121704,1725.377441 1468.836304,1715.219971 
z"/>
<path fill="#7CCFDD" opacity="1.000000" stroke="none" 
	d="
M525.503601,1491.527344 
	C543.533386,1462.827881 561.152161,1434.722534 579.220703,1405.899780 
	C584.352478,1415.059326 589.180603,1423.705200 594.035095,1432.336304 
	C614.657715,1469.003052 639.224976,1502.814697 667.027405,1534.380371 
	C718.648987,1592.989258 779.107849,1640.141602 848.795532,1675.379395 
	C853.720093,1677.869507 856.287781,1681.212646 857.963379,1686.205566 
	C871.508484,1726.567871 881.947937,1767.765259 891.348267,1809.246826 
	C891.713562,1810.859009 891.903259,1812.537964 891.928772,1814.189575 
	C891.942993,1815.114746 891.451111,1816.047607 890.889526,1818.026611 
	C878.634705,1813.381104 866.538635,1808.984497 854.585083,1804.229492 
	C817.726746,1789.567017 782.461121,1771.656982 748.666443,1750.946045 
	C742.702820,1747.291138 738.730835,1747.878784 733.516846,1751.658691 
	C699.853027,1776.062378 666.841064,1801.272095 635.758728,1828.937378 
	C628.596802,1835.312134 621.292053,1841.526367 614.159912,1847.721680 
	C565.900391,1822.951416 434.945831,1692.099365 408.138245,1641.762085 
	C450.738770,1594.905640 489.892578,1545.048950 525.503601,1491.527344 
z"/>
<path fill="#7CCFDD" opacity="1.000000" stroke="none" 
	d="
M1732.498413,479.488220 
	C1775.616821,520.688171 1815.332153,563.905151 1849.218140,612.841248 
	C1783.164551,685.165100 1727.256226,763.808105 1678.547607,849.730469 
	C1674.365967,842.566467 1670.936279,837.035400 1667.836670,831.325256 
	C1645.834106,790.793213 1619.051880,753.719360 1588.580200,719.102600 
	C1553.614380,679.380798 1514.063232,644.991882 1470.125244,615.764832 
	C1450.500122,602.710327 1429.609619,591.537781 1409.108032,579.835999 
	C1404.253540,577.065247 1400.804443,574.162598 1398.951538,568.494995 
	C1385.107300,526.150024 1373.585327,483.210419 1364.257324,438.188873 
	C1367.343018,438.566864 1369.863403,438.423798 1372.049683,439.209930 
	C1419.138550,456.141846 1464.376343,476.989929 1507.029785,503.280701 
	C1509.827515,505.005127 1512.816284,506.419647 1516.802979,508.562439 
	C1538.112305,492.406433 1559.860107,476.571899 1580.866211,459.807709 
	C1601.879028,443.037903 1622.150391,425.338837 1643.798096,407.164429 
	C1674.886719,428.533752 1703.960449,453.104279 1732.498413,479.488220 
z"/>
<path fill="#393784" opacity="1.000000" stroke="none" 
	d="
M453.825714,1406.214600 
	C437.902527,1368.710693 426.435455,1330.569092 416.692505,1290.380615 
	C390.050293,1286.834961 363.226685,1282.817871 336.290619,1279.807007 
	C309.612549,1276.824707 282.821045,1274.856934 254.650833,1272.315552 
	C238.833664,1176.398438 238.920502,1079.566650 254.674820,982.178650 
	C303.853302,979.279907 352.260681,974.499207 400.373474,966.605530 
	C448.128448,958.770508 495.213135,947.980530 543.313660,935.028687 
	C540.244202,945.912781 537.625122,955.054871 535.088623,964.219788 
	C525.234192,999.825745 518.325806,1035.971558 515.720093,1072.858032 
	C514.737610,1086.765747 514.215332,1100.709961 513.698059,1114.645508 
	C511.122467,1184.036377 521.962463,1251.506836 543.016785,1317.481812 
	C544.363220,1321.700806 545.236572,1325.395386 542.994812,1329.812378 
	C522.798096,1369.604614 500.635010,1408.247559 476.130127,1445.544312 
	C475.597137,1446.355591 475.037933,1447.149658 473.807251,1448.953979 
	C465.394897,1434.905518 459.950897,1420.819092 453.825714,1406.214600 
z"/>
<path fill="#393784" opacity="1.000000" stroke="none" 
	d="
M1331.595703,1713.596191 
	C1372.483154,1734.004150 1411.152222,1756.618408 1450.463867,1782.395630 
	C1399.312744,1808.302979 1347.140991,1825.856689 1292.348633,1839.049927 
	C1282.291626,1892.207031 1277.022949,1946.166260 1273.892578,2000.287720 
	C1223.206787,2016.259155 1067.343384,2016.698486 982.882568,2001.004028 
	C978.581055,1903.571045 962.493896,1807.736084 935.848694,1712.736206 
	C951.312988,1716.966675 965.535339,1721.112549 979.890442,1724.731934 
	C1010.833252,1732.533325 1042.160156,1738.209351 1074.048462,1740.282959 
	C1088.292847,1741.209229 1102.564209,1742.075317 1116.830811,1742.217041 
	C1136.029297,1742.407959 1155.321899,1742.958984 1174.419434,1741.426514 
	C1216.495850,1738.050171 1258.061035,1731.197266 1298.588135,1718.948242 
	C1305.582886,1716.834106 1312.591675,1714.761108 1319.545044,1712.517456 
	C1323.476562,1711.248657 1327.252686,1710.549316 1331.595703,1713.596191 
z"/>
<path fill="#393784" opacity="1.000000" stroke="none" 
	d="
M1717.127686,919.279358 
	C1737.007202,880.038330 1758.858032,842.835388 1783.475708,805.507568 
	C1809.091919,856.539917 1826.956299,908.874023 1840.074707,963.703796 
	C1893.130371,973.600891 1946.795410,979.004578 2002.221069,982.156555 
	C2018.238403,1078.916870 2018.113525,1175.786011 2002.246460,1273.113403 
	C1904.436890,1277.451294 1809.124512,1293.492310 1714.375366,1319.910645 
	C1714.851196,1317.127319 1714.972900,1314.992065 1715.590942,1313.011719 
	C1726.597778,1277.734985 1734.579712,1241.758911 1739.202393,1205.129639 
	C1741.567139,1186.391846 1742.520386,1167.455444 1743.560181,1148.578491 
	C1744.162720,1137.641113 1743.769775,1126.642578 1743.654907,1115.673218 
	C1743.017334,1054.753662 1732.790405,995.395874 1713.751953,937.603271 
	C1711.385986,930.421509 1714.093994,925.524719 1717.127686,919.279358 
z"/>
<path fill="#393784" opacity="1.000000" stroke="none" 
	d="
M959.217529,417.407837 
	C962.897583,416.321075 965.289795,415.585236 965.830444,411.604706 
	C968.909607,388.937256 972.983215,366.389404 975.511108,343.666504 
	C978.773132,314.344666 980.897095,284.896210 983.551025,255.054306 
	C1020.666748,238.306076 1230.037476,237.966431 1274.010010,255.064484 
	C1278.736206,351.971375 1294.473633,447.261505 1321.099365,542.336182 
	C1312.602539,539.954346 1305.739014,538.080811 1298.904541,536.106079 
	C1264.381714,526.130859 1229.344604,518.697144 1193.492920,515.750916 
	C1172.007080,513.985168 1150.459229,511.965637 1128.933838,511.902496 
	C1083.672363,511.769714 1038.779297,516.489136 994.644897,526.772583 
	C975.258484,531.289673 956.217957,537.278625 936.952698,542.341675 
	C934.007935,543.115601 930.155762,543.589417 927.634033,542.349670 
	C886.694641,522.221863 847.255981,499.448914 809.253357,474.202911 
	C808.805298,473.905273 808.656921,473.156586 807.922241,471.785126 
	C856.041138,447.879242 906.222229,429.995972 959.217529,417.407837 
z"/>
<path fill="#383784" opacity="1.000000" stroke="none" 
	d="
M1249.585938,658.258667 
	C1306.962280,673.476379 1359.290161,697.606689 1407.271484,731.233154 
	C1413.280151,735.444092 1416.254272,739.738770 1416.057495,747.463684 
	C1415.497437,769.449402 1415.860962,791.458618 1415.860962,813.458618 
	C1415.860962,816.706665 1415.860962,819.954712 1415.860962,823.653076 
	C1411.475464,823.653076 1408.239502,823.653076 1405.156860,823.653076 
	C1391.781982,803.998718 1378.574951,798.065186 1361.968506,804.091858 
	C1348.087524,809.129395 1338.922729,823.366211 1340.324707,837.714233 
	C1341.780396,852.614929 1353.446411,864.974854 1368.427856,867.489197 
	C1384.335815,870.159119 1396.921631,861.263000 1407.074097,839.378052 
	C1410.763306,839.378052 1415.018799,839.541321 1419.257690,839.344238 
	C1428.233154,838.926819 1430.187988,836.927368 1430.220337,827.756287 
	C1430.304077,804.089966 1430.243896,780.423096 1430.268799,756.756470 
	C1430.270752,754.860962 1430.482910,752.965698 1430.713989,749.140869 
	C1472.950562,782.779785 1507.311157,821.133545 1535.605957,864.995911 
	C1569.332886,917.279114 1592.290283,973.868591 1604.283691,1036.415894 
	C1599.483521,1036.415894 1595.902466,1036.415894 1592.321411,1036.415894 
	C1549.988159,1036.416016 1507.654785,1036.415527 1465.321533,1036.416992 
	C1462.988281,1036.417114 1460.644531,1036.293579 1458.323608,1036.466187 
	C1450.694336,1037.034058 1448.376343,1039.375122 1448.168823,1047.002319 
	C1448.006836,1052.956055 1448.136475,1058.917603 1448.136475,1066.346802 
	C1440.596802,1066.438843 1433.767944,1066.555420 1426.938721,1066.596436 
	C1419.973145,1066.638306 1413.006958,1066.605713 1405.676025,1066.605713 
	C1401.968018,1055.810547 1396.494019,1046.902832 1385.942993,1042.346191 
	C1379.291748,1039.473877 1372.326416,1038.987671 1365.359741,1040.490601 
	C1350.729126,1043.646973 1340.393066,1056.326050 1339.942749,1071.217163 
	C1339.486206,1086.318359 1348.976440,1099.596313 1362.983765,1103.825073 
	C1376.369141,1107.865967 1394.279175,1103.886353 1405.091553,1081.865967 
	C1414.433960,1081.865967 1424.341675,1081.866943 1434.249390,1081.865601 
	C1440.249390,1081.864868 1446.253540,1082.001465 1452.248413,1081.823242 
	C1460.524658,1081.577148 1462.995483,1079.232666 1463.338013,1071.096191 
	C1463.587646,1065.165161 1463.386719,1059.215210 1463.386719,1052.577393 
	C1511.510986,1052.577393 1558.697388,1052.577393 1605.937378,1052.577393 
	C1613.033813,1071.035278 1615.203003,1157.053101 1608.880615,1177.411133 
	C1572.816406,1177.411133 1536.605469,1177.411133 1500.606567,1177.411133 
	C1488.820679,1156.465576 1475.865479,1148.956543 1459.547119,1153.357910 
	C1444.677612,1157.368286 1434.111084,1170.924561 1434.436157,1185.572876 
	C1434.771606,1200.680176 1445.286621,1213.512573 1460.335693,1217.179932 
	C1476.739868,1221.177368 1489.747070,1213.387451 1500.435913,1192.791626 
	C1535.674927,1192.791626 1571.196899,1192.791626 1607.516602,1192.791626 
	C1607.516602,1195.912109 1607.908203,1198.822998 1607.459839,1201.598145 
	C1593.103516,1290.441162 1557.717407,1369.927368 1499.657227,1438.723633 
	C1429.703613,1521.612305 1341.511108,1575.350708 1235.788574,1599.970215 
	C1212.112915,1605.483521 1188.092285,1608.685303 1163.791626,1610.484253 
	C1074.962891,1617.059692 990.983276,1599.900513 911.168762,1560.761963 
	C903.757263,1557.127563 901.275696,1552.900146 901.400635,1544.773804 
	C901.882080,1513.447998 901.596069,1482.110229 901.596130,1450.776978 
	C901.596130,1447.488892 901.596069,1444.200806 901.596069,1441.384766 
	C922.866882,1429.837158 929.941772,1417.250854 925.617554,1399.719360 
	C922.227417,1385.975342 909.384521,1375.989868 894.815247,1375.770508 
	C879.220825,1375.535522 866.454590,1384.709229 862.523254,1398.974854 
	C857.672729,1416.576050 864.502319,1429.078247 885.894104,1441.330688 
	C885.894104,1475.724976 885.894104,1510.313599 885.894104,1545.843994 
	C883.257751,1544.680054 881.149475,1543.989624 879.283203,1542.888672 
	C855.685425,1528.968262 833.788513,1512.679688 812.804077,1495.112183 
	C809.806091,1492.602417 808.169373,1489.920654 808.179504,1485.783325 
	C808.342529,1419.452637 808.369019,1353.121704 808.439636,1286.790771 
	C808.439941,1286.474243 808.626038,1286.158081 808.972107,1285.055908 
	C818.646118,1280.814941 827.722961,1274.917969 831.748779,1263.740234 
	C834.324951,1256.587524 834.485291,1249.476440 831.994629,1242.219238 
	C826.890259,1227.346069 814.176819,1218.921875 798.018372,1219.922241 
	C783.830261,1220.800781 771.798645,1231.383057 768.648682,1245.754028 
	C765.087891,1261.999390 773.220459,1275.156616 793.360229,1285.480225 
	C793.360229,1348.522217 793.360229,1411.680542 793.360229,1477.293701 
	C743.744324,1429.171265 706.332886,1375.246094 681.009521,1313.267456 
	C637.367310,1206.453247 631.951721,1097.346680 664.912109,986.799866 
	C686.046936,915.915100 722.226318,853.362854 773.126160,798.475220 
	C774.952087,800.689331 776.089050,801.850220 776.973816,803.178955 
	C780.636597,808.679688 784.223206,814.231201 788.220764,820.350464 
	C778.172302,827.277771 768.681458,833.820679 758.542725,840.810242 
	C761.331543,845.639954 763.772278,849.866882 766.536377,854.653748 
	C764.854248,856.816467 763.132385,859.030273 760.902527,861.897278 
	C767.579041,870.287048 774.121094,878.638428 780.800293,886.878601 
	C810.172913,923.115356 839.746216,959.191223 868.885437,995.614380 
	C877.677246,1006.603882 887.826294,1014.193420 902.259705,1014.930786 
	C903.917114,1015.015503 905.723511,1015.670654 907.201721,1015.216858 
	C917.657959,1012.007202 926.382263,1016.146729 935.628052,1020.470703 
	C960.625977,1032.161621 985.995300,1043.058228 1012.284363,1054.744263 
	C1016.004211,1046.941406 1019.506775,1039.594238 1023.439148,1031.345581 
	C1038.977173,1038.230835 1054.073242,1044.920288 1070.008545,1051.981689 
	C1066.798828,1060.000122 1063.791138,1067.513794 1060.395142,1075.997314 
	C1079.280029,1084.505493 1097.378296,1092.659302 1115.688965,1100.908813 
	C1115.688965,1119.541626 1115.688965,1137.805786 1115.688965,1156.224365 
	C1104.204956,1164.123901 1100.001221,1175.453369 1100.221680,1188.923706 
	C1100.362061,1197.501953 1100.247803,1206.084473 1100.247803,1215.316772 
	C1123.491821,1215.316772 1145.636841,1215.316772 1169.001953,1215.316772 
	C1169.502319,1200.839111 1171.676147,1186.545166 1166.887085,1172.732544 
	C1165.122925,1167.643921 1161.097900,1163.117310 1157.341187,1159.036743 
	C1155.509888,1157.047729 1153.553711,1155.820557 1153.571899,1152.732056 
	C1153.669922,1136.089722 1153.618408,1119.446777 1153.618408,1103.324463 
	C1158.744629,1099.807495 1163.468750,1097.205933 1167.437744,1093.739746 
	C1193.298096,1071.155518 1188.946167,1030.316528 1158.430664,1014.752808 
	C1139.491455,1005.093323 1119.621094,997.259705 1099.102661,988.132446 
	C1095.547241,995.806885 1092.139893,1003.161682 1088.233398,1011.593994 
	C1072.308228,1004.568176 1057.224854,997.913757 1041.338989,990.905334 
	C1044.701660,982.949524 1047.760864,975.711670 1051.028198,967.981689 
	C1048.666626,966.448059 1046.936035,964.980896 1044.947876,964.086487 
	C1027.026733,956.024475 1009.110413,947.946777 991.071777,940.153564 
	C986.552490,938.201172 983.688965,935.498596 981.265198,931.057556 
	C952.856384,879.004395 924.157715,827.109253 895.505859,775.188904 
	C894.879639,774.054077 893.903137,773.112549 892.819580,771.737610 
	C889.771729,773.091187 886.843140,774.391785 883.583740,775.839294 
	C880.703552,771.935486 877.974854,768.237061 874.440125,763.446045 
	C867.247681,767.968872 860.120728,772.450500 852.039368,777.532288 
	C844.964172,766.685608 838.308716,756.482361 831.064941,745.377197 
	C872.677795,712.534485 918.035156,687.967529 967.289124,670.523071 
	C1029.227661,648.586060 1093.011475,640.027405 1159.748535,644.508606 
	C1159.748535,652.323914 1159.747437,659.568054 1159.748901,666.812134 
	C1159.750610,675.478760 1159.605225,684.148865 1159.801880,692.811035 
	C1159.978149,700.568726 1161.478882,702.043884 1169.355469,702.201599 
	C1178.685059,702.388306 1188.021484,702.219910 1197.354248,702.287415 
	C1199.269043,702.301270 1201.181152,702.677551 1203.577393,702.939636 
	C1203.577393,739.673523 1203.577393,775.890686 1203.577393,812.876831 
	C1193.618042,817.077087 1184.711792,823.153137 1180.792236,834.399353 
	C1178.284058,841.595886 1178.416260,848.832764 1180.605591,855.984985 
	C1184.786011,869.640991 1198.868408,878.839661 1213.937378,878.014404 
	C1227.993408,877.244629 1241.104980,866.096802 1243.777466,852.643738 
	C1247.198608,835.422058 1239.879639,822.905334 1219.405640,812.547546 
	C1219.405640,809.660217 1219.405640,806.098694 1219.405640,802.537170 
	C1219.405640,770.203857 1219.405884,737.870605 1219.404785,705.537292 
	C1219.404785,703.203979 1219.507690,700.863892 1219.367554,698.538635 
	C1218.857056,690.069031 1216.851685,688.019409 1208.444336,687.918823 
	C1197.503418,687.787842 1186.559570,687.886780 1174.883057,687.886780 
	C1174.883057,673.623169 1174.883057,660.206482 1174.883057,645.672241 
	C1200.341064,647.136169 1224.603638,652.342590 1249.585938,658.258667 
M1172.915161,1265.345337 
	C1183.854980,1278.327515 1194.352173,1291.723145 1205.927612,1304.111450 
	C1211.439209,1310.010010 1213.486816,1316.244141 1213.629517,1323.721069 
	C1213.902710,1338.037842 1213.967285,1352.361206 1214.461670,1366.670044 
	C1214.767822,1375.526611 1215.706543,1384.361328 1216.373047,1393.364502 
	C1221.143433,1393.364502 1225.024048,1393.364502 1229.185059,1393.364502 
	C1230.075562,1390.504883 1231.097656,1388.058838 1231.589844,1385.510254 
	C1235.812500,1363.646729 1239.814819,1341.739868 1244.178223,1319.905029 
	C1245.331665,1314.133423 1246.780518,1308.206909 1249.359375,1302.975586 
	C1256.235596,1289.026978 1253.470703,1275.995361 1240.480713,1267.196411 
	C1222.015991,1254.689453 1203.458252,1242.310181 1184.672363,1230.295410 
	C1180.976685,1227.931641 1176.081787,1226.375854 1171.711304,1226.308350 
	C1145.407959,1225.902710 1119.095703,1226.114624 1092.787598,1225.937866 
	C1086.752686,1225.897339 1081.914917,1227.946045 1077.406372,1231.844849 
	C1060.537598,1246.432373 1043.463379,1260.781982 1026.576294,1275.348511 
	C1014.144165,1286.072388 1013.280518,1301.998657 1024.043091,1314.297119 
	C1026.385010,1316.973511 1028.666138,1319.988037 1029.958496,1323.249634 
	C1036.207275,1339.021118 1042.071533,1354.944214 1048.149170,1370.784180 
	C1051.336060,1379.090210 1054.680908,1387.335449 1058.179077,1396.175415 
	C1063.038696,1395.230225 1067.126831,1394.435181 1071.852783,1393.516113 
	C1070.825562,1385.915405 1069.926880,1379.071289 1068.971802,1372.235352 
	C1066.626587,1355.449585 1064.307495,1338.659790 1061.861450,1321.888550 
	C1061.152832,1317.029175 1062.194946,1313.021240 1065.042847,1308.837769 
	C1074.031982,1295.632812 1082.731201,1282.218140 1091.121216,1268.624390 
	C1094.117065,1263.770264 1097.590576,1261.913818 1103.270386,1262.020142 
	C1122.579956,1262.381348 1141.899780,1262.163696 1161.212646,1262.404541 
	C1164.740845,1262.448364 1168.255249,1263.605103 1172.915161,1265.345337 
z"/>
<path fill="#3A3B87" opacity="1.000000" stroke="none" 
	d="
M896.627441,989.881897 
	C885.855957,982.963928 878.344910,974.584412 875.572021,962.368713 
	C870.319641,939.229675 886.001282,915.979492 909.589600,912.370850 
	C932.068176,908.931946 954.351257,926.281921 956.185364,948.651123 
	C958.263367,973.994873 940.368530,994.302612 915.671570,993.895996 
	C909.533813,993.794983 903.432190,991.496582 896.627441,989.881897 
M923.309937,930.510254 
	C920.343079,930.204285 917.370300,929.590332 914.410400,929.647461 
	C903.557129,929.856934 894.175171,937.542603 892.153015,947.622498 
	C889.736084,959.670166 895.490784,970.937866 906.368835,975.457275 
	C916.996765,979.872803 929.153503,976.313599 935.482178,966.933716 
	C944.102722,954.156982 939.703674,939.399780 923.309937,930.510254 
z"/>
<path fill="#3C3F89" opacity="1.000000" stroke="none" 
	d="
M1160.856934,1047.590820 
	C1164.682495,1056.668091 1163.565552,1064.602295 1158.480469,1071.935669 
	C1150.291504,1083.745728 1133.317139,1086.179443 1122.317749,1077.271362 
	C1110.591431,1067.774536 1109.366699,1050.954590 1119.618652,1040.202271 
	C1129.530396,1029.806763 1146.307129,1029.766479 1156.150024,1040.270142 
	C1157.933472,1042.173218 1159.075684,1044.677368 1160.856934,1047.590820 
M1151.495728,1052.468750 
	C1150.221802,1050.564941 1149.235352,1048.360596 1147.619385,1046.814331 
	C1142.907349,1042.305420 1135.752319,1041.713745 1130.275513,1045.044678 
	C1124.645508,1048.468628 1122.127319,1055.654297 1124.197998,1062.388672 
	C1126.096680,1068.563599 1131.774170,1072.357910 1138.664429,1072.057007 
	C1147.858643,1071.655273 1152.099731,1065.893921 1151.495728,1052.468750 
z"/>
<path fill="#7BCCDB" opacity="1.000000" stroke="none" 
	d="
M1172.345581,1264.796753 
	C1168.255249,1263.605103 1164.740845,1262.448364 1161.212646,1262.404541 
	C1141.899780,1262.163696 1122.579956,1262.381348 1103.270386,1262.020142 
	C1097.590576,1261.913818 1094.117065,1263.770264 1091.121216,1268.624390 
	C1082.731201,1282.218140 1074.031982,1295.632812 1065.042847,1308.837769 
	C1062.194946,1313.021240 1061.152832,1317.029175 1061.861450,1321.888550 
	C1064.307495,1338.659790 1066.626587,1355.449585 1068.971802,1372.235352 
	C1069.926880,1379.071289 1070.825562,1385.915405 1071.852783,1393.516113 
	C1067.126831,1394.435181 1063.038696,1395.230225 1058.179077,1396.175415 
	C1054.680908,1387.335449 1051.336060,1379.090210 1048.149170,1370.784180 
	C1042.071533,1354.944214 1036.207275,1339.021118 1029.958496,1323.249634 
	C1028.666138,1319.988037 1026.385010,1316.973511 1024.043091,1314.297119 
	C1013.280518,1301.998657 1014.144165,1286.072388 1026.576294,1275.348511 
	C1043.463379,1260.781982 1060.537598,1246.432373 1077.406372,1231.844849 
	C1081.914917,1227.946045 1086.752686,1225.897339 1092.787598,1225.937866 
	C1119.095703,1226.114624 1145.407959,1225.902710 1171.711304,1226.308350 
	C1176.081787,1226.375854 1180.976685,1227.931641 1184.672363,1230.295410 
	C1203.458252,1242.310181 1222.015991,1254.689453 1240.480713,1267.196411 
	C1253.470703,1275.995361 1256.235596,1289.026978 1249.359375,1302.975586 
	C1246.780518,1308.206909 1245.331665,1314.133423 1244.178223,1319.905029 
	C1239.814819,1341.739868 1235.812500,1363.646729 1231.589844,1385.510254 
	C1231.097656,1388.058838 1230.075562,1390.504883 1229.185059,1393.364502 
	C1225.024048,1393.364502 1221.143433,1393.364502 1216.373047,1393.364502 
	C1215.706543,1384.361328 1214.767822,1375.526611 1214.461670,1366.670044 
	C1213.967285,1352.361206 1213.902710,1338.037842 1213.629517,1323.721069 
	C1213.486816,1316.244141 1211.439209,1310.010010 1205.927612,1304.111450 
	C1194.352173,1291.723145 1183.854980,1278.327515 1172.345581,1264.796753 
M1232.493286,1295.820557 
	C1233.472412,1294.118042 1234.884644,1292.524292 1235.344604,1290.691406 
	C1236.468506,1286.213379 1234.072021,1281.842163 1230.036865,1280.197388 
	C1225.628906,1278.400635 1220.195190,1279.999146 1217.724731,1283.819580 
	C1215.369141,1287.462280 1215.959839,1292.355713 1219.366577,1295.575073 
	C1222.955200,1298.966309 1227.028809,1298.945557 1232.493286,1295.820557 
M1043.269409,1304.372314 
	C1051.282959,1302.411377 1053.858887,1298.919434 1052.161621,1292.317871 
	C1050.880005,1287.332886 1045.602051,1284.521851 1040.430176,1286.244995 
	C1036.652832,1287.503418 1034.313354,1290.145508 1034.096680,1294.247070 
	C1033.812744,1299.623657 1036.261719,1303.060181 1043.269409,1304.372314 
z"/>
<path fill="#7ACBDB" opacity="1.000000" stroke="none" 
	d="
M924.062378,930.829590 
	C939.703674,939.399780 944.102722,954.156982 935.482178,966.933716 
	C929.153503,976.313599 916.996765,979.872803 906.368835,975.457275 
	C895.490784,970.937866 889.736084,959.670166 892.153015,947.622498 
	C894.175171,937.542603 903.557129,929.856934 914.410400,929.647461 
	C917.370300,929.590332 920.343079,930.204285 924.062378,930.829590 
z"/>
<path fill="#79C9DA" opacity="1.000000" stroke="none" 
	d="
M1151.718872,1053.244141 
	C1152.099731,1065.893921 1147.858643,1071.655273 1138.664429,1072.057007 
	C1131.774170,1072.357910 1126.096680,1068.563599 1124.197998,1062.388672 
	C1122.127319,1055.654297 1124.645508,1048.468628 1130.275513,1045.044678 
	C1135.752319,1041.713745 1142.907349,1042.305420 1147.619385,1046.814331 
	C1149.235352,1048.360596 1150.221802,1050.564941 1151.718872,1053.244141 
z"/>
<path fill="#3C3E89" opacity="1.000000" stroke="none" 
	d="
M1231.874268,1296.308472 
	C1227.028809,1298.945557 1222.955200,1298.966309 1219.366577,1295.575073 
	C1215.959839,1292.355713 1215.369141,1287.462280 1217.724731,1283.819580 
	C1220.195190,1279.999146 1225.628906,1278.400635 1230.036865,1280.197388 
	C1234.072021,1281.842163 1236.468506,1286.213379 1235.344604,1290.691406 
	C1234.884644,1292.524292 1233.472412,1294.118042 1231.874268,1296.308472 
z"/>
<path fill="#3C3F89" opacity="1.000000" stroke="none" 
	d="
M1042.441162,1304.317871 
	C1036.261719,1303.060181 1033.812744,1299.623657 1034.096680,1294.247070 
	C1034.313354,1290.145508 1036.652832,1287.503418 1040.430176,1286.244995 
	C1045.602051,1284.521851 1050.880005,1287.332886 1052.161621,1292.317871 
	C1053.858887,1298.919434 1051.282959,1302.411377 1042.441162,1304.317871 
z"/>
</svg>